<?xml version="1.0" encoding="UTF-8"?><svg id="b" xmlns="http://www.w3.org/2000/svg" viewBox="0 0 73.1 61.25"><defs><style>.d{fill:#282828;stroke-width:0px;}</style></defs><g id="c"><path class="d" d="m73.09,30.36c0-.08-.03-.17-.04-.25-.02-.09-.03-.18-.06-.27-.03-.09-.07-.17-.1-.26-.03-.08-.06-.16-.1-.23-.05-.1-.12-.2-.19-.29-.03-.05-.06-.1-.09-.15l-.03-.04h0S50.19,1.02,50.19,1.02c-.54-.67-1.33-1.02-2.13-1.02-.6,0-1.2.2-1.7.6-1.17.94-1.36,2.65-.42,3.83l18.78,23.48H2.72c-1.5,0-2.72,1.22-2.72,2.72s1.22,2.72,2.72,2.72h62l-18.78,23.48c-.94,1.17-.75,2.89.42,3.83,1.18.94,2.89.75,3.83-.43l22.29-27.86h0s.03-.04.03-.04c.04-.05.06-.1.1-.15.07-.09.13-.19.19-.29.04-.08.07-.15.1-.23.03-.08.07-.17.1-.26.03-.09.04-.18.06-.27.02-.08.04-.16.04-.25,0-.09,0-.17,0-.26s0-.17,0-.26Z"/></g></svg>