<?xml version="1.0" encoding="UTF-8"?><svg id="b" xmlns="http://www.w3.org/2000/svg" viewBox="0 0 155 140.5"><defs><style>.c{stroke-width:0px;}</style></defs><path class="c" d="m141.74,140.5H13.74c-7.58,0-13.74-5.94-13.74-13.23V62.5c0-4.69,3.81-8.5,8.5-8.5s8.5,3.81,8.5,8.5v61h121v-61c0-4.69,3.81-8.5,8.5-8.5s8.5,3.81,8.5,8.5v64.77c0,7.42-5.82,13.23-13.26,13.23Z"/><path class="c" d="m77.82,112c-2.04,0-4.08-.73-5.69-2.19l-28.86-26.04c-3.49-3.14-3.76-8.52-.62-12,3.14-3.49,8.52-3.76,12-.62l23.17,20.91,23.17-20.88c3.49-3.14,8.86-2.86,12,.62,3.14,3.49,2.86,8.86-.62,12l-28.86,26.01c-1.62,1.46-3.65,2.19-5.69,2.19Z"/><path class="c" d="m77.5,111c-4.69,0-8.5-3.81-8.5-8.5V8.5c0-4.69,3.81-8.5,8.5-8.5s8.5,3.81,8.5,8.5v94c0,4.69-3.81,8.5-8.5,8.5Z"/></svg>